<?xml version="1.0" encoding="utf-8"?>
<!-- Generator: Adobe Illustrator 24.2.3, SVG Export Plug-In . SVG Version: 6.00 Build 0)  -->
<svg version="1.1" id="Capa_1" xmlns="http://www.w3.org/2000/svg" xmlns:xlink="http://www.w3.org/1999/xlink" x="0px" y="0px"
	 viewBox="0 0 486.9 94.1" style="enable-background:new 0 0 486.9 94.1;" xml:space="preserve">
<style type="text/css">
	.st0{fill:#0F4D97;}
	.st1{fill:#E41B19;}
</style>
<g>
	<g>
		<path class="st0" d="M109.5,31.2v6.1H96.8v6.6h9.5v5.9h-9.5v12.6h-7.6V31.2H109.5z"/>
		<path class="st0" d="M133,56.9h-11.7l-1.9,5.5h-8l11.3-31.2h8.8l11.3,31.2h-8.1L133,56.9z M131,51l-3.9-11.4L123.3,51H131z"/>
		<path class="st0" d="M162.3,62.4l-6.5-11.8h-1.8v11.8h-7.6V31.2h12.8c2.5,0,4.6,0.4,6.3,1.3c1.7,0.9,3,2,3.9,3.5
			c0.9,1.5,1.3,3.2,1.3,5c0,2.1-0.6,3.9-1.8,5.6c-1.2,1.6-2.9,2.8-5.2,3.5l7.2,12.4H162.3z M153.9,45.2h4.7c1.4,0,2.4-0.3,3.1-1
			c0.7-0.7,1-1.6,1-2.9c0-1.2-0.3-2.1-1-2.8c-0.7-0.7-1.7-1-3.1-1h-4.7V45.2z"/>
		<path class="st0" d="M210.7,31.2v31.2h-7.6V43.7l-7,18.7H190l-7-18.8v18.8h-7.6V31.2h9l8.8,21.6l8.7-21.6H210.7z"/>
		<path class="st0" d="M235.6,56.9H224l-1.9,5.5h-8l11.3-31.2h8.8l11.3,31.2h-8.1L235.6,56.9z M233.7,51l-3.9-11.4L226,51H233.7z"/>
		<path class="st0" d="M249.7,38.5c1.3-2.4,3.2-4.3,5.6-5.6c2.4-1.3,5.1-2,8.1-2c3.7,0,6.9,1,9.5,2.9c2.6,2,4.4,4.6,5.3,8h-8.4
			c-0.6-1.3-1.5-2.3-2.6-3c-1.1-0.7-2.4-1-3.9-1c-2.3,0-4.2,0.8-5.7,2.4c-1.5,1.6-2.2,3.8-2.2,6.5s0.7,4.9,2.2,6.5
			c1.5,1.6,3.4,2.4,5.7,2.4c1.5,0,2.8-0.3,3.9-1c1.1-0.7,2-1.7,2.6-3h8.4c-0.9,3.4-2.7,6-5.3,8c-2.6,1.9-5.8,2.9-9.5,2.9
			c-3,0-5.7-0.7-8.1-2c-2.4-1.3-4.2-3.2-5.6-5.6c-1.3-2.4-2-5.1-2-8.2S248.3,40.9,249.7,38.5z"/>
		<path class="st0" d="M298.8,62.4l-6.5-11.8h-1.8v11.8h-7.6V31.2h12.8c2.5,0,4.6,0.4,6.3,1.3c1.7,0.9,3,2,3.9,3.5
			c0.9,1.5,1.3,3.2,1.3,5c0,2.1-0.6,3.9-1.8,5.6c-1.2,1.6-2.9,2.8-5.2,3.5l7.2,12.4H298.8z M290.5,45.2h4.7c1.4,0,2.4-0.3,3.1-1
			c0.7-0.7,1-1.6,1-2.9c0-1.2-0.3-2.1-1-2.8c-0.7-0.7-1.7-1-3.1-1h-4.7V45.2z"/>
		<path class="st0" d="M318.6,60.7c-2.4-1.4-4.4-3.3-5.8-5.7c-1.4-2.4-2.2-5.2-2.2-8.3c0-3.1,0.7-5.8,2.2-8.2
			c1.4-2.4,3.4-4.3,5.8-5.7c2.4-1.4,5.1-2,8.1-2c2.9,0,5.6,0.7,8.1,2c2.4,1.4,4.4,3.3,5.8,5.7c1.4,2.4,2.1,5.2,2.1,8.2
			c0,3.1-0.7,5.8-2.1,8.3c-1.4,2.4-3.4,4.4-5.8,5.7c-2.4,1.4-5.1,2-8.1,2C323.7,62.7,321,62,318.6,60.7z M332.6,53.3
			c1.5-1.7,2.2-3.9,2.2-6.6c0-2.8-0.7-5-2.2-6.6c-1.5-1.6-3.5-2.5-6-2.5c-2.5,0-4.5,0.8-6,2.4c-1.5,1.6-2.2,3.8-2.2,6.6
			c0,2.8,0.7,5,2.2,6.6c1.5,1.6,3.5,2.5,6,2.5C329.1,55.8,331.1,54.9,332.6,53.3z M331.8,24.9l-10.7,4.5v-5.2l10.7-5.2V24.9z"/>
		<path class="st0" d="M374.8,62.4h-7.6l-12.7-19.3v19.3h-7.6V31.2h7.6l12.7,19.4V31.2h7.6V62.4z"/>
		<path class="st0" d="M387.9,31.2v31.2h-7.6V31.2H387.9z"/>
		<path class="st0" d="M394.1,38.5c1.3-2.4,3.2-4.3,5.6-5.6c2.4-1.3,5.1-2,8.1-2c3.7,0,6.9,1,9.5,2.9c2.6,2,4.4,4.6,5.3,8h-8.4
			c-0.6-1.3-1.5-2.3-2.6-3c-1.1-0.7-2.4-1-3.9-1c-2.3,0-4.2,0.8-5.7,2.4c-1.5,1.6-2.2,3.8-2.2,6.5s0.7,4.9,2.2,6.5
			c1.5,1.6,3.4,2.4,5.7,2.4c1.5,0,2.8-0.3,3.9-1c1.1-0.7,2-1.7,2.6-3h8.4c-0.9,3.4-2.7,6-5.3,8c-2.6,1.9-5.8,2.9-9.5,2.9
			c-3,0-5.7-0.7-8.1-2s-4.2-3.2-5.6-5.6c-1.3-2.4-2-5.1-2-8.2S392.8,40.9,394.1,38.5z"/>
		<path class="st0" d="M434,60.7c-2.4-1.4-4.4-3.3-5.8-5.7c-1.4-2.4-2.2-5.2-2.2-8.3c0-3.1,0.7-5.8,2.2-8.2c1.4-2.4,3.4-4.3,5.8-5.7
			c2.4-1.4,5.1-2,8.1-2c2.9,0,5.6,0.7,8.1,2c2.4,1.4,4.4,3.3,5.8,5.7c1.4,2.4,2.1,5.2,2.1,8.2c0,3.1-0.7,5.8-2.1,8.3
			c-1.4,2.4-3.4,4.4-5.8,5.7c-2.4,1.4-5.1,2-8.1,2C439.1,62.7,436.5,62,434,60.7z M448.1,53.3c1.5-1.7,2.2-3.9,2.2-6.6
			c0-2.8-0.7-5-2.2-6.6c-1.5-1.6-3.5-2.5-6-2.5c-2.5,0-4.5,0.8-6,2.4c-1.5,1.6-2.2,3.8-2.2,6.6c0,2.8,0.7,5,2.2,6.6
			c1.5,1.6,3.5,2.5,6,2.5C444.6,55.8,446.6,54.9,448.1,53.3z"/>
		<path class="st0" d="M467.4,61.6c-1.8-0.7-3.3-1.8-4.3-3.3c-1.1-1.5-1.7-3.2-1.7-5.2h8.1c0.1,1.2,0.5,2,1.2,2.6
			c0.7,0.6,1.6,0.9,2.7,0.9c1.1,0,2-0.3,2.7-0.8c0.7-0.5,1-1.2,1-2.2c0-0.8-0.3-1.4-0.8-1.9c-0.5-0.5-1.2-0.9-1.9-1.2
			s-1.8-0.7-3.2-1.1c-2-0.6-3.7-1.2-4.9-1.9c-1.3-0.6-2.4-1.5-3.3-2.8c-0.9-1.2-1.4-2.8-1.4-4.8c0-2.9,1.1-5.2,3.2-6.8
			c2.1-1.6,4.8-2.5,8.2-2.5c3.4,0,6.2,0.8,8.3,2.5c2.1,1.6,3.2,3.9,3.4,6.9h-8.2c-0.1-1-0.4-1.8-1.1-2.4c-0.7-0.6-1.6-0.9-2.6-0.9
			c-0.9,0-1.7,0.2-2.2,0.7s-0.8,1.2-0.8,2.1c0,1,0.5,1.8,1.4,2.4c0.9,0.6,2.4,1.2,4.4,1.8c2,0.7,3.7,1.3,4.9,2
			c1.3,0.6,2.3,1.5,3.3,2.7c0.9,1.2,1.4,2.7,1.4,4.6c0,1.8-0.5,3.4-1.4,4.8c-0.9,1.5-2.2,2.6-3.9,3.5s-3.8,1.3-6.1,1.3
			C471.3,62.7,469.3,62.3,467.4,61.6z"/>
	</g>
</g>
<g>
	<path class="st1" d="M71.3,56.7H52v19.6H33.6V56.7H14.4V39.2h19.3V19.5H52v19.7h19.3V56.7z"/>
</g>
<g>
	<path class="st0" d="M39.4,19.2v11.2H15.5v12.8H34v10.7H15.5v23.6H1.4V19.2H39.4z"/>
</g>
</svg>
