<?xml version="1.0" encoding="utf-8"?>
<!-- Generator: Adobe Illustrator 24.2.3, SVG Export Plug-In . SVG Version: 6.00 Build 0)  -->
<svg version="1.1" id="Capa_1" xmlns="http://www.w3.org/2000/svg" xmlns:xlink="http://www.w3.org/1999/xlink" x="0px" y="0px"
	 viewBox="0 0 277.8 94.1" style="enable-background:new 0 0 277.8 94.1;" xml:space="preserve">
<style type="text/css">
	.st0{fill:#FFFFFF;}
</style>
<g>
	<g>
		<path class="st0" d="M89.8,37.3c-0.8-0.3-1.6-0.7-2.2-1.2c-0.6-0.5-1.1-1.1-1.5-1.8s-0.5-1.5-0.5-2.4c0-0.9,0.2-1.7,0.6-2.5
			c0.4-0.8,0.9-1.4,1.5-1.9c0.6-0.5,1.4-1,2.2-1.2c0.8-0.3,1.7-0.4,2.6-0.4c0.6,0,1.3,0.1,1.9,0.2s1.2,0.3,1.8,0.6
			c0.5,0.3,1,0.6,1.5,1c0.4,0.4,0.8,0.8,1.1,1.3c0.1,0.2,0.2,0.3,0.2,0.5c0,0.2,0,0.3,0,0.5c0,0.2-0.1,0.3-0.2,0.4s-0.2,0.2-0.3,0.4
			c-0.1,0.1-0.2,0.2-0.4,0.3S97.7,31,97.5,31s-0.4,0-0.6,0s-0.4-0.1-0.6-0.3c-0.3-0.3-0.6-0.5-0.9-0.7c-0.3-0.2-0.6-0.4-0.9-0.5
			c-0.3-0.1-0.6-0.2-1-0.3c-0.4-0.1-0.7-0.1-1.2-0.1c-0.5,0-1,0.1-1.4,0.2c-0.4,0.1-0.8,0.3-1.2,0.6c-0.3,0.2-0.6,0.5-0.8,0.9
			c-0.2,0.3-0.3,0.7-0.3,1.2c0,0.5,0.1,0.9,0.4,1.2c0.3,0.3,0.6,0.6,1,0.8c0.4,0.2,0.9,0.4,1.5,0.5c0.6,0.1,1.2,0.3,1.8,0.4
			c0.8,0.2,1.5,0.5,2.3,0.8c0.7,0.3,1.4,0.7,2,1.1c0.6,0.5,1,1,1.4,1.7c0.4,0.7,0.5,1.4,0.5,2.4c0,0.9-0.2,1.8-0.6,2.6
			c-0.4,0.8-0.9,1.5-1.6,2.1c-0.7,0.6-1.4,1-2.3,1.4c-0.9,0.3-1.8,0.5-2.9,0.5c-0.8,0-1.6-0.1-2.4-0.3c-0.8-0.2-1.4-0.5-2.1-0.9
			s-1.2-0.8-1.7-1.3c-0.5-0.5-0.8-1-1.1-1.6c-0.1-0.3-0.2-0.5-0.2-0.8c0-0.2,0-0.4,0.1-0.6s0.2-0.4,0.3-0.5c0.1-0.1,0.3-0.3,0.5-0.4
			c0.4-0.2,0.8-0.3,1.1-0.1c0.4,0.1,0.7,0.4,1.1,0.9c0.5,0.7,1.1,1.3,1.8,1.7c0.8,0.4,1.6,0.6,2.6,0.6c0.5,0,1-0.1,1.4-0.2
			c0.5-0.1,0.9-0.3,1.3-0.6c0.4-0.3,0.7-0.6,0.9-1c0.2-0.4,0.4-0.8,0.4-1.3c0-0.5-0.1-0.9-0.4-1.3c-0.2-0.3-0.5-0.6-0.9-0.8
			c-0.4-0.2-0.8-0.4-1.3-0.5c-0.5-0.1-0.9-0.3-1.4-0.4C91.6,37.8,90.7,37.6,89.8,37.3z"/>
		<path class="st0" d="M113.5,41.3h-8.3l-2,4.9c-0.1,0.2-0.2,0.4-0.4,0.6c-0.2,0.1-0.3,0.3-0.5,0.3s-0.4,0.1-0.6,0.1
			c-0.2,0-0.4,0-0.7-0.1c-0.4-0.2-0.7-0.5-0.8-0.9c-0.1-0.4-0.1-0.8,0.1-1.3l7.7-17.9c0.1-0.3,0.3-0.6,0.6-0.8
			c0.3-0.2,0.6-0.3,0.9-0.3c0.3,0,0.6,0.1,0.9,0.3c0.3,0.2,0.5,0.4,0.6,0.7l7.6,17.9c0.2,0.4,0.2,0.8,0.1,1.3
			c-0.1,0.4-0.4,0.7-0.8,0.9c-0.2,0.1-0.4,0.1-0.6,0.2c-0.2,0-0.4,0-0.6-0.1c-0.2-0.1-0.4-0.2-0.5-0.3c-0.2-0.1-0.3-0.3-0.4-0.5
			L113.5,41.3z M106.5,38h5.6l-2.8-6.7L106.5,38z"/>
		<path class="st0" d="M123.4,43.9l6.8,0c0.5,0,0.8,0.2,1.2,0.5c0.3,0.3,0.5,0.7,0.5,1.2c0,0.2,0,0.4-0.1,0.6
			c-0.1,0.2-0.2,0.4-0.4,0.5c-0.1,0.1-0.3,0.3-0.5,0.4c-0.2,0.1-0.4,0.1-0.6,0.1h-8.7l-0.1,0c-0.4-0.1-0.7-0.3-0.9-0.6
			c-0.2-0.3-0.4-0.6-0.4-1V27.6c0-0.2,0-0.4,0.1-0.6c0.1-0.2,0.2-0.4,0.3-0.5c0.1-0.1,0.3-0.3,0.5-0.4c0.2-0.1,0.4-0.1,0.6-0.1
			s0.4,0,0.6,0.1c0.2,0.1,0.4,0.2,0.5,0.4c0.1,0.1,0.3,0.3,0.4,0.5s0.1,0.4,0.1,0.6L123.4,43.9L123.4,43.9z"/>
		<path class="st0" d="M145,26.9c0.1-0.2,0.2-0.4,0.4-0.5c0.1-0.1,0.3-0.3,0.5-0.3c0.2-0.1,0.4-0.1,0.6-0.1c0.5,0,0.8,0.2,1.2,0.5
			c0.3,0.3,0.5,0.7,0.5,1.2v12c0,1.1-0.2,2.1-0.6,3c-0.4,0.9-0.9,1.8-1.6,2.5c-0.7,0.7-1.5,1.2-2.4,1.7c-0.9,0.4-2,0.6-3.1,0.6
			c-1.1,0-2.2-0.2-3.1-0.6c-1-0.4-1.8-1-2.5-1.7c-0.7-0.7-1.2-1.5-1.7-2.5s-0.6-1.9-0.6-3v-12c0-0.2,0-0.4,0.1-0.6
			c0.1-0.2,0.2-0.4,0.4-0.5c0.1-0.1,0.3-0.3,0.5-0.4c0.2-0.1,0.4-0.1,0.6-0.1s0.4,0,0.6,0.1c0.2,0.1,0.4,0.2,0.5,0.4
			c0.1,0.1,0.3,0.3,0.4,0.5c0.1,0.2,0.1,0.4,0.1,0.6v11.9c0,0.6,0.1,1.2,0.4,1.8c0.2,0.6,0.5,1,0.9,1.5c0.4,0.4,0.9,0.7,1.5,1
			c0.6,0.3,1.2,0.4,1.9,0.4s1.3-0.1,1.8-0.4c0.5-0.2,1-0.6,1.4-1c0.4-0.4,0.7-0.9,0.9-1.5c0.2-0.5,0.3-1.1,0.3-1.8V27.6
			C144.9,27.3,144.9,27.1,145,26.9z"/>
		<path class="st0" d="M156.2,26c1,0,1.9,0.1,2.9,0.4c0.9,0.3,1.8,0.6,2.5,1.1c0.8,0.5,1.5,1,2.2,1.7c0.7,0.6,1.2,1.4,1.7,2.1
			c0.5,0.8,0.8,1.6,1.1,2.5c0.3,0.9,0.4,1.9,0.4,2.9c0,1-0.1,1.9-0.4,2.9c-0.3,0.9-0.6,1.7-1.1,2.5c-0.5,0.8-1,1.5-1.7,2.1
			c-0.7,0.6-1.4,1.2-2.2,1.6s-1.6,0.8-2.5,1.1s-1.9,0.4-2.9,0.4h-3.6c-0.5,0-0.8-0.2-1.2-0.5c-0.3-0.3-0.5-0.7-0.5-1.2v-18
			c0-0.5,0.2-0.8,0.5-1.2c0.3-0.3,0.7-0.5,1.2-0.5H156.2z M156.3,29.3h-2.1v14.6h2c1,0,2-0.2,2.9-0.5s1.7-0.9,2.4-1.5
			c0.7-0.6,1.2-1.4,1.6-2.3c0.4-0.9,0.6-1.9,0.6-2.9c0-1-0.2-2-0.6-2.9c-0.4-0.9-0.9-1.7-1.6-2.3c-0.7-0.7-1.4-1.2-2.3-1.6
			C158.2,29.5,157.3,29.3,156.3,29.3z"/>
		<path class="st0" d="M180.6,26c1,0,1.9,0.1,2.9,0.4c0.9,0.3,1.8,0.6,2.5,1.1c0.8,0.5,1.5,1,2.2,1.7c0.7,0.6,1.2,1.4,1.7,2.1
			c0.5,0.8,0.8,1.6,1.1,2.5c0.3,0.9,0.4,1.9,0.4,2.9c0,1-0.1,1.9-0.4,2.9c-0.3,0.9-0.6,1.7-1.1,2.5c-0.5,0.8-1,1.5-1.7,2.1
			c-0.7,0.6-1.4,1.2-2.2,1.6s-1.6,0.8-2.5,1.1s-1.9,0.4-2.9,0.4H177c-0.5,0-0.8-0.2-1.2-0.5c-0.3-0.3-0.5-0.7-0.5-1.2v-18
			c0-0.5,0.2-0.8,0.5-1.2c0.3-0.3,0.7-0.5,1.2-0.5H180.6z M180.7,29.3h-2.1v14.6h2c1,0,2-0.2,2.9-0.5c0.9-0.4,1.7-0.9,2.4-1.5
			c0.7-0.6,1.2-1.4,1.6-2.3c0.4-0.9,0.6-1.9,0.6-2.9c0-1-0.2-2-0.6-2.9c-0.4-0.9-0.9-1.7-1.6-2.3c-0.7-0.7-1.4-1.2-2.3-1.6
			C182.7,29.5,181.7,29.3,180.7,29.3z"/>
		<path class="st0" d="M196.6,45.5c0,0.5-0.2,0.8-0.5,1.2c-0.3,0.3-0.7,0.5-1.2,0.5c-0.5,0-0.8-0.2-1.2-0.5
			c-0.3-0.3-0.5-0.7-0.5-1.2V27.6c0-0.5,0.2-0.8,0.5-1.2c0.3-0.3,0.7-0.5,1.2-0.5s0.8,0.2,1.2,0.5s0.5,0.7,0.5,1.2V45.5z"/>
		<path class="st0" d="M201.8,36.6c0,1,0.2,2,0.6,2.9c0.4,0.9,0.9,1.7,1.6,2.4c0.7,0.7,1.4,1.2,2.3,1.6c0.9,0.4,1.9,0.6,2.9,0.6
			c1.6,0,2.9-0.4,4-1.1c1.1-0.7,1.8-1.7,2.2-3h-3.5c-0.5,0-0.8-0.2-1.2-0.5c-0.3-0.3-0.5-0.7-0.5-1.2c0-0.4,0.2-0.8,0.5-1.2
			c0.3-0.3,0.7-0.5,1.2-0.5l5.4,0c0.5,0,0.8,0.2,1.2,0.5c0.3,0.3,0.5,0.7,0.5,1.2c-0.1,1.3-0.4,2.5-0.9,3.6c-0.5,1.1-1.2,2-2.1,2.8
			c-0.9,0.8-1.9,1.4-3.1,1.9c-1.2,0.4-2.4,0.7-3.7,0.7c-1.5,0-2.9-0.3-4.2-0.8c-1.3-0.6-2.4-1.3-3.4-2.3c-0.9-1-1.7-2.1-2.3-3.4
			c-0.5-1.3-0.8-2.7-0.8-4.2c0-1.5,0.3-2.9,0.8-4.2c0.5-1.3,1.3-2.5,2.2-3.4c1-1,2.1-1.8,3.4-2.3c1.3-0.6,2.7-0.9,4.2-0.9
			c1.5,0,2.9,0.3,4.1,0.8s2.5,1.3,3.5,2.4c0.3,0.3,0.5,0.7,0.5,1.1c0,0.4-0.1,0.8-0.5,1.1c-0.2,0.2-0.3,0.3-0.5,0.4
			s-0.4,0.1-0.6,0.1c-0.2,0-0.4,0-0.6-0.1c-0.2-0.1-0.4-0.2-0.5-0.4c-0.8-0.7-1.6-1.3-2.5-1.7c-0.9-0.4-1.9-0.5-2.8-0.5
			c-1,0-1.9,0.2-2.8,0.6c-0.9,0.4-1.7,0.9-2.3,1.6c-0.7,0.7-1.2,1.5-1.6,2.4C201.9,34.5,201.8,35.5,201.8,36.6z"/>
		<path class="st0" d="M224.4,45.5c0,0.5-0.2,0.8-0.5,1.2c-0.3,0.3-0.7,0.5-1.2,0.5c-0.5,0-0.8-0.2-1.2-0.5
			c-0.3-0.3-0.5-0.7-0.5-1.2V27.6c0-0.5,0.2-0.8,0.5-1.2c0.3-0.3,0.7-0.5,1.2-0.5s0.8,0.2,1.2,0.5c0.3,0.3,0.5,0.7,0.5,1.2V45.5z"/>
		<path class="st0" d="M235,29.2v16.3c0,0.5-0.2,0.8-0.5,1.2c-0.3,0.3-0.7,0.5-1.2,0.5c-0.5,0-0.8-0.2-1.1-0.5
			c-0.3-0.3-0.4-0.7-0.4-1.2V29.2h-4.4c-0.5,0-0.8-0.2-1.2-0.5c-0.3-0.3-0.5-0.7-0.5-1.2c0-0.5,0.2-0.8,0.5-1.2
			c0.3-0.3,0.7-0.5,1.2-0.5h12c0.5,0,0.8,0.2,1.2,0.5c0.3,0.3,0.5,0.7,0.5,1.2c0,0.2,0,0.4-0.1,0.6c-0.1,0.2-0.2,0.4-0.4,0.5
			c-0.1,0.1-0.3,0.3-0.5,0.3c-0.2,0.1-0.4,0.1-0.6,0.1L235,29.2z"/>
		<path class="st0" d="M251.3,41.3h-8.3l-2,4.9c-0.1,0.2-0.2,0.4-0.4,0.6c-0.2,0.1-0.3,0.3-0.5,0.3c-0.2,0.1-0.4,0.1-0.6,0.1
			c-0.2,0-0.4,0-0.7-0.1c-0.4-0.2-0.7-0.5-0.8-0.9c-0.1-0.4-0.1-0.8,0.1-1.3l7.7-17.9c0.1-0.3,0.3-0.6,0.6-0.8
			c0.3-0.2,0.6-0.3,0.9-0.3c0.3,0,0.6,0.1,0.9,0.3c0.3,0.2,0.5,0.4,0.6,0.7l7.6,17.9c0.2,0.4,0.2,0.8,0.1,1.3
			c-0.1,0.4-0.4,0.7-0.8,0.9c-0.2,0.1-0.4,0.1-0.6,0.2c-0.2,0-0.4,0-0.6-0.1c-0.2-0.1-0.4-0.2-0.5-0.3c-0.2-0.1-0.3-0.3-0.4-0.5
			L251.3,41.3z M244.3,38h5.6l-2.8-6.7L244.3,38z"/>
		<path class="st0" d="M261.2,43.9l6.8,0c0.5,0,0.8,0.2,1.2,0.5c0.3,0.3,0.5,0.7,0.5,1.2c0,0.2,0,0.4-0.1,0.6
			c-0.1,0.2-0.2,0.4-0.4,0.5c-0.1,0.1-0.3,0.3-0.5,0.4c-0.2,0.1-0.4,0.1-0.6,0.1h-8.7l-0.1,0c-0.4-0.1-0.7-0.3-0.9-0.6
			c-0.2-0.3-0.4-0.6-0.4-1V27.6c0-0.2,0-0.4,0.1-0.6c0.1-0.2,0.2-0.4,0.3-0.5c0.1-0.1,0.3-0.3,0.5-0.4c0.2-0.1,0.4-0.1,0.6-0.1
			s0.4,0,0.6,0.1c0.2,0.1,0.4,0.2,0.5,0.4c0.1,0.1,0.3,0.3,0.4,0.5s0.1,0.4,0.1,0.6L261.2,43.9L261.2,43.9z"/>
		<path class="st0" d="M109.1,75.5c0,0.5-0.2,0.8-0.5,1.2c-0.3,0.3-0.7,0.5-1.2,0.5c-0.5,0-0.8-0.2-1.2-0.5
			c-0.3-0.3-0.5-0.7-0.5-1.2v-18c0-0.5,0.2-0.8,0.5-1.2c0.3-0.3,0.7-0.5,1.2-0.5s0.8,0.2,1.2,0.5c0.3,0.3,0.5,0.7,0.5,1.2V75.5z"/>
		<path class="st0" d="M115.6,62.5v13c0,0.5-0.2,0.8-0.5,1.2c-0.3,0.3-0.7,0.5-1.2,0.5c-0.5,0-0.8-0.2-1.2-0.5
			c-0.3-0.3-0.5-0.7-0.5-1.2V57.6c0-0.5,0.2-0.8,0.5-1.2c0.3-0.3,0.7-0.5,1.2-0.5h0c0.1,0,0.1,0,0.1,0c0,0,0.1,0,0.1,0l0.2,0
			c0.2,0.1,0.4,0.1,0.5,0.2l0.2,0.1c0.1,0.1,0.2,0.3,0.3,0.4l9.8,13.7V57.6c0-0.5,0.2-0.8,0.5-1.2c0.3-0.3,0.7-0.5,1.2-0.5
			c0.2,0,0.4,0,0.6,0.1c0.2,0.1,0.4,0.2,0.5,0.4c0.1,0.1,0.3,0.3,0.3,0.5c0.1,0.2,0.1,0.4,0.1,0.6v18c0,0.4-0.1,0.7-0.3,1
			c-0.2,0.3-0.5,0.5-0.8,0.6c-0.1,0-0.2,0-0.3,0.1h-0.2c-0.4,0-0.7-0.1-1-0.4l-0.2-0.1c0,0-0.1-0.1-0.1-0.1L115.6,62.5z"/>
		<path class="st0" d="M138.5,59.2v16.3c0,0.5-0.2,0.8-0.5,1.2c-0.3,0.3-0.7,0.5-1.2,0.5c-0.5,0-0.8-0.2-1.1-0.5
			c-0.3-0.3-0.4-0.7-0.4-1.2V59.2H131c-0.5,0-0.8-0.2-1.2-0.5c-0.3-0.3-0.5-0.7-0.5-1.2c0-0.5,0.2-0.8,0.5-1.2
			c0.3-0.3,0.7-0.5,1.2-0.5h12c0.5,0,0.8,0.2,1.2,0.5s0.5,0.7,0.5,1.2c0,0.2,0,0.4-0.1,0.6c-0.1,0.2-0.2,0.4-0.4,0.5
			c-0.1,0.1-0.3,0.3-0.5,0.3c-0.2,0.1-0.4,0.1-0.6,0.1H138.5z"/>
		<path class="st0" d="M147.7,77.2c-0.4,0-0.8-0.2-1.1-0.5s-0.4-0.7-0.4-1.1V57.6c0-0.2,0-0.4,0.1-0.6c0.1-0.2,0.2-0.4,0.3-0.5
			c0.1-0.1,0.3-0.3,0.5-0.4c0.2-0.1,0.4-0.1,0.7-0.1h8.8c0.2,0,0.4,0,0.6,0.1c0.2,0.1,0.4,0.2,0.5,0.4s0.3,0.3,0.4,0.5
			c0.1,0.2,0.1,0.4,0.1,0.6c0,0.5-0.2,0.8-0.5,1.2c-0.3,0.3-0.7,0.5-1.2,0.5h-7.1V65h5.2c0.2,0,0.4,0,0.6,0.1
			c0.2,0.1,0.4,0.2,0.5,0.4c0.1,0.2,0.3,0.3,0.4,0.5c0.1,0.2,0.1,0.4,0.1,0.6c0,0.5-0.2,0.8-0.5,1.1c-0.3,0.3-0.7,0.4-1.2,0.4h-5.2
			v5.7h7.1c0.5,0,0.8,0.2,1.2,0.5c0.3,0.3,0.5,0.7,0.5,1.2c0,0.2,0,0.4-0.1,0.6c-0.1,0.2-0.2,0.4-0.4,0.5c-0.1,0.1-0.3,0.3-0.5,0.4
			c-0.2,0.1-0.4,0.1-0.6,0.1L147.7,77.2L147.7,77.2z"/>
		<path class="st0" d="M161.4,66.6c0,1,0.2,2,0.6,2.9c0.4,0.9,0.9,1.7,1.6,2.4c0.7,0.7,1.4,1.2,2.3,1.6c0.9,0.4,1.9,0.6,2.9,0.6
			c1.6,0,2.9-0.4,4-1.1c1.1-0.7,1.8-1.7,2.2-3h-3.5c-0.5,0-0.8-0.2-1.2-0.5c-0.3-0.3-0.5-0.7-0.5-1.2c0-0.4,0.2-0.8,0.5-1.2
			s0.7-0.5,1.2-0.5l5.4,0c0.5,0,0.8,0.2,1.2,0.5s0.5,0.7,0.5,1.2c-0.1,1.3-0.4,2.5-0.9,3.6c-0.5,1.1-1.2,2-2.1,2.8
			c-0.9,0.8-1.9,1.4-3.1,1.9c-1.2,0.4-2.4,0.7-3.7,0.7c-1.5,0-2.9-0.3-4.2-0.8c-1.3-0.6-2.4-1.3-3.4-2.3c-0.9-1-1.7-2.1-2.3-3.4
			c-0.5-1.3-0.8-2.7-0.8-4.2c0-1.5,0.3-2.9,0.8-4.2c0.5-1.3,1.3-2.5,2.2-3.4c1-1,2.1-1.8,3.4-2.3c1.3-0.6,2.7-0.9,4.2-0.9
			c1.5,0,2.9,0.3,4.1,0.8c1.3,0.5,2.5,1.3,3.5,2.4c0.3,0.3,0.5,0.7,0.5,1.1c0,0.4-0.1,0.8-0.5,1.1c-0.2,0.2-0.3,0.3-0.5,0.4
			c-0.2,0.1-0.4,0.1-0.6,0.1c-0.2,0-0.4,0-0.6-0.1c-0.2-0.1-0.4-0.2-0.5-0.4c-0.8-0.7-1.6-1.3-2.5-1.7c-0.9-0.4-1.9-0.5-2.8-0.5
			c-1,0-1.9,0.2-2.8,0.6c-0.9,0.4-1.7,0.9-2.3,1.6c-0.7,0.7-1.2,1.5-1.6,2.4C161.6,64.6,161.4,65.5,161.4,66.6z"/>
		<path class="st0" d="M194.2,62.2c0,0.7-0.1,1.3-0.3,2c-0.2,0.6-0.5,1.2-0.9,1.7c-0.4,0.5-0.8,0.9-1.3,1.3
			c-0.5,0.4-1.1,0.7-1.7,0.9l3.9,6.6c0.1,0.2,0.2,0.4,0.2,0.6c0,0.2,0,0.4-0.1,0.6c-0.1,0.2-0.2,0.4-0.3,0.6
			c-0.1,0.2-0.3,0.3-0.5,0.4c-0.2,0.1-0.4,0.2-0.6,0.2c-0.2,0-0.4,0-0.6-0.1c-0.2-0.1-0.4-0.2-0.5-0.3c-0.2-0.1-0.3-0.3-0.4-0.5
			l-4.6-7.9H184v7.1c0,0.5-0.2,0.8-0.5,1.2c-0.3,0.3-0.7,0.5-1.2,0.5c-0.5,0-0.8-0.2-1.2-0.5c-0.3-0.3-0.5-0.7-0.5-1.2V57.6
			c0-0.5,0.2-0.8,0.5-1.2c0.3-0.3,0.7-0.5,1.2-0.5h5.5c0.9,0,1.7,0.2,2.5,0.5c0.8,0.3,1.4,0.8,2,1.3c0.6,0.6,1,1.2,1.4,2
			C194.1,60.5,194.2,61.4,194.2,62.2z M184,59.2v5.9h3.9c0.4,0,0.8-0.1,1.2-0.2c0.4-0.2,0.7-0.4,1-0.7s0.5-0.6,0.7-1
			c0.2-0.4,0.2-0.7,0.2-1.1c0-0.4-0.1-0.8-0.2-1.2c-0.2-0.4-0.4-0.7-0.7-0.9c-0.3-0.3-0.6-0.5-1-0.6c-0.4-0.1-0.8-0.2-1.2-0.2
			L184,59.2L184,59.2z"/>
		<path class="st0" d="M208.5,71.3h-8.3l-2,4.9c-0.1,0.2-0.2,0.4-0.4,0.6c-0.2,0.1-0.3,0.3-0.5,0.3c-0.2,0.1-0.4,0.1-0.6,0.1
			c-0.2,0-0.4,0-0.7-0.1c-0.4-0.2-0.7-0.5-0.8-0.9c-0.1-0.4-0.1-0.8,0.1-1.3l7.7-17.9c0.1-0.3,0.3-0.6,0.6-0.8
			c0.3-0.2,0.6-0.3,0.9-0.3c0.3,0,0.6,0.1,0.9,0.3s0.5,0.4,0.6,0.7l7.6,17.9c0.2,0.4,0.2,0.8,0.1,1.3c-0.1,0.4-0.4,0.7-0.8,0.9
			c-0.2,0.1-0.4,0.1-0.6,0.2c-0.2,0-0.4,0-0.6-0.1c-0.2-0.1-0.4-0.2-0.5-0.3c-0.2-0.1-0.3-0.3-0.4-0.5L208.5,71.3z M201.5,68h5.6
			l-2.8-6.7L201.5,68z"/>
		<path class="st0" d="M220.4,56c1,0,1.9,0.1,2.9,0.4c0.9,0.3,1.8,0.6,2.5,1.1c0.8,0.5,1.5,1,2.2,1.7c0.7,0.6,1.2,1.4,1.7,2.1
			c0.5,0.8,0.8,1.6,1.1,2.5c0.3,0.9,0.4,1.9,0.4,2.9c0,1-0.1,1.9-0.4,2.9c-0.3,0.9-0.6,1.7-1.1,2.5c-0.5,0.8-1,1.5-1.7,2.1
			c-0.7,0.6-1.4,1.2-2.2,1.6s-1.6,0.8-2.5,1.1c-0.9,0.3-1.9,0.4-2.9,0.4h-3.6c-0.5,0-0.8-0.2-1.2-0.5c-0.3-0.3-0.5-0.7-0.5-1.2v-18
			c0-0.5,0.2-0.8,0.5-1.2c0.3-0.3,0.7-0.5,1.2-0.5L220.4,56z M220.5,59.3h-2.1v14.6h2c1,0,2-0.2,2.9-0.5s1.7-0.9,2.4-1.5
			c0.7-0.6,1.2-1.4,1.6-2.3c0.4-0.9,0.6-1.9,0.6-2.9c0-1-0.2-2-0.6-2.9c-0.4-0.9-0.9-1.7-1.6-2.3c-0.7-0.7-1.4-1.2-2.3-1.6
			C222.5,59.5,221.5,59.3,220.5,59.3z"/>
		<path class="st0" d="M244.9,71.3h-8.3l-2,4.9c-0.1,0.2-0.2,0.4-0.4,0.6c-0.2,0.1-0.3,0.3-0.5,0.3c-0.2,0.1-0.4,0.1-0.6,0.1
			c-0.2,0-0.4,0-0.7-0.1c-0.4-0.2-0.7-0.5-0.8-0.9c-0.1-0.4-0.1-0.8,0.1-1.3l7.7-17.9c0.1-0.3,0.3-0.6,0.6-0.8
			c0.3-0.2,0.6-0.3,0.9-0.3c0.3,0,0.6,0.1,0.9,0.3c0.3,0.2,0.5,0.4,0.6,0.7l7.6,17.9c0.2,0.4,0.2,0.8,0.1,1.3
			c-0.1,0.4-0.4,0.7-0.8,0.9c-0.2,0.1-0.4,0.1-0.6,0.2c-0.2,0-0.4,0-0.6-0.1c-0.2-0.1-0.4-0.2-0.5-0.3c-0.2-0.1-0.3-0.3-0.4-0.5
			L244.9,71.3z M237.9,68h5.6l-2.8-6.7L237.9,68z"/>
	</g>
	<ellipse class="st0" cx="43.4" cy="36.8" rx="4.4" ry="5.8"/>
	<path class="st0" d="M28.9,70.8c0,0,1.7-5.6,4.7-11.6c2.4-4.9,5.9-9.2,10-12.7c5.3-4.4,14.5-12.8,15.8-18.3c0,0,1.7,9.3-6.7,19.9
		c-0.7,0.9-1,2.1-0.9,3.3c0.9,6.4,3.4,27.7-4,37.4c0,0,3-13.7-0.7-18.7c0,0-8.3,19.4-14.3,21.3c0,0,11-15.9,8.1-31.3
		c-0.1-0.7-0.8-1.1-1.5-0.8C37.7,60,34.1,62.5,28.9,70.8z"/>
	<path class="st0" d="M8.5,40.3c0,0,6.5-7.9,13.9,0C22.4,40.3,15.9,47.7,8.5,40.3z"/>
	<path class="st0" d="M16.9,50.7c0,0,1.8-8.4,10.1-4.7C27,46,25,54,16.9,50.7z"/>
	<path class="st0" d="M17.9,26.4c0,0,7.9-2.3,8.6,6.4C26.5,32.8,18.8,34.8,17.9,26.4z"/>
	<path class="st0" d="M34.2,12.3c0,0,7.6,3.2,2.7,10.4C36.9,22.7,29.7,19.4,34.2,12.3z"/>
	<path class="st0" d="M56.8,12.1c0,0,3.9,7.3-4.5,9.7C52.3,21.9,48.8,14.7,56.8,12.1z"/>
	<path class="st0" d="M56.8,27.4c0,0,1.2,5.6-4.9,5.7C52,33.1,51,27.6,56.8,27.4z"/>
	<path class="st0" d="M79.1,30.3c0,0-0.8,4.3-5,2.5C74.1,32.8,75,28.7,79.1,30.3z"/>
	<path class="st0" d="M63.3,9.8c0,0,1.5,4.1-3.1,4.7C60.2,14.5,59,10.5,63.3,9.8z"/>
	<path class="st0" d="M53.4,5.8c0,0,2.5,3.5-1.7,5.4C51.7,11.1,49.4,7.7,53.4,5.8z"/>
	<path class="st0" d="M36.7,5.9c0,0,4.2,1.2,2.1,5.2C38.8,11.1,34.8,9.9,36.7,5.9z"/>
	<path class="st0" d="M26.7,10c0,0,4.3-0.1,3.5,4.4C30.2,14.4,26,14.4,26.7,10z"/>
	<path class="st0" d="M15,20c0,0,4-1.6,4.8,2.9C19.8,22.9,15.9,24.3,15,20z"/>
	<path class="st0" d="M10.6,30.5c0,0,3.7-2.2,5.2,2.2C15.8,32.7,12.2,34.7,10.6,30.5z"/>
	<path class="st0" d="M74.4,20.2c0,0-0.4,3.6-4,2.5C70.4,22.7,70.8,19.2,74.4,20.2z"/>
	<path class="st0" d="M14.4,46.4c0,0-0.9,3.5-4.4,1.9C10.1,48.2,11.1,44.9,14.4,46.4z"/>
	<path class="st0" d="M37.7,47.2c0,0,0.1,3.7-3.7,3C34,50.2,34,46.7,37.7,47.2z"/>
	<path class="st0" d="M28.9,65.7c0,0,0.1,3.7-3.7,3C25.2,68.7,25.2,65.2,28.9,65.7z"/>
	<path class="st0" d="M18.4,55.3c0,0-0.3,4.1-4.5,2.9C13.9,58.2,14.4,54.2,18.4,55.3z"/>
	<path class="st0" d="M75.8,57.9c0,0-3.4,1.2-4-2.6C71.8,55.3,75.2,54.2,75.8,57.9z"/>
	<path class="st0" d="M63,70c0,0-4.2,0.7-4-3.8C59,66.2,63.1,65.7,63,70z"/>
	<path class="st0" d="M63.8,43.4c0,0-3.4,1.4-4.1-2.4C59.8,41,63,39.8,63.8,43.4z"/>
	<path class="st0" d="M37.6,33c0,0-5.7,0.5-5-5.5C32.6,27.5,38.1,27.1,37.6,33z"/>
	<path class="st0" d="M28.5,42.3c0,0,3.1-5.3,7.9-1C36.4,41.3,33.3,46.3,28.5,42.3z"/>
	<path class="st0" d="M45.4,27.7c0,0-4.3-4.4,1.1-7.9C46.5,19.7,50.6,24.1,45.4,27.7z"/>
	<path class="st0" d="M20.3,13.5c0,0,10.2-0.7,9.5,10.1C29.8,23.6,20,23.9,20.3,13.5z"/>
	<g>
		<path class="st0" d="M19,65.1c0,0-1.5-9.7,8.8-9.1C27.8,56,29,65.4,19,65.1z"/>
		<path class="st0" d="M79.3,47.7c0,0-3.1,1.9-4.4-1.7C74.8,46,77.9,44.3,79.3,47.7z"/>
		<path class="st0" d="M57.8,54.2c0,0-3.4,1.2-4-2.6C53.8,51.6,57.1,50.5,57.8,54.2z"/>
		<path class="st0" d="M44.5,4.3c0,0,7.3,6.4-0.4,13.2C44.1,17.5,37.3,11.2,44.5,4.3z"/>
	</g>
	<path class="st0" d="M80.6,39.7c0,0-5.9,7.7-13.2,0.5C67.4,40.2,73.3,33,80.6,39.7z"/>
	<path class="st0" d="M71.5,65.3c0,0-9.6,1.3-9.7-8.9C61.8,56.3,71.1,55.3,71.5,65.3z"/>
	<path class="st0" d="M72,50.2c0,0-6.4,2.8-8.5-4.3C63.5,46,69.7,43.5,72,50.2z"/>
	<path class="st0" d="M71.5,26.1c0,0-0.4,8.3-9.1,6.7C62.4,32.8,63.1,24.9,71.5,26.1z"/>
	<path class="st0" d="M69.5,13.8c0,0,1.6,9.5-8.7,9.9C60.8,23.7,59.6,14.4,69.5,13.8z"/>
</g>
</svg>
